<svg xmlns="http://www.w3.org/2000/svg" viewBox="0 0 40.01 38.2"><defs><style>.cls-1,.cls-2{fill:#eed1aa;}.cls-2{font-size:5.65px;font-family:Montserrat-Regular, Montserrat;}</style></defs><title>Asset 1</title><g id="Layer_2" data-name="Layer 2"><g id="Layer_1-2" data-name="Layer 1"><path class="cls-1" d="M28.62,22.89q0-.77,0-1.17,0-1,.06-1.68h-.46a8.41,8.41,0,0,1-.52,2.24,2.66,2.66,0,0,1-1,1.31,3.36,3.36,0,0,1-1.84.43H23.45a1.14,1.14,0,0,1-.48-.26,1.43,1.43,0,0,1-.37-1l-.16-6,.06-.22h-.44a.69.69,0,0,1-.07.15,18.81,18.81,0,0,1-.8,1.73,5.76,5.76,0,0,1-.93,1.28,3.78,3.78,0,0,1-.57.49l-.09.08a4,4,0,0,1-.86.47,4.35,4.35,0,0,1-1.64.36,2.43,2.43,0,0,1-2-1,4.81,4.81,0,0,1-.75-3,11.8,11.8,0,0,1,.34-2.81,13.22,13.22,0,0,1,.95-2.67A11.86,11.86,0,0,1,17,9.48c.18-.21.37-.39.56-.58A5.36,5.36,0,0,1,18,8.5a5.13,5.13,0,0,1,.76-.56,4.23,4.23,0,0,1,.79-.35,3.6,3.6,0,0,1,1.16-.21,3.11,3.11,0,0,1,1.43.34l.05,0a2.42,2.42,0,0,1,1,1,2.87,2.87,0,0,1,.31,1.27c0,.09,0,.19,0,.27s0,.27,0,.41a9.43,9.43,0,0,1-.13,1.09h.44c.23-1.06.45-2,.66-2.71s.42-1.37.62-1.89h-.42a2.81,2.81,0,0,1-.56,1.09c-.17.16-.35.13-.54-.07a5,5,0,0,0-1.07-.9,1.57,1.57,0,0,0-.29-.14L22,0,21.6,0l-.39,0-7,9.87A10.46,10.46,0,0,0,13,11.33c-.18.28-.32.57-.48.85a10.48,10.48,0,0,0-.8,1.82c0,.07,0,.14-.05.2a9.08,9.08,0,0,0-.4,2.6,4.77,4.77,0,0,0,1.3,3.6,5.32,5.32,0,0,0,3.84,1.26,5.4,5.4,0,0,0,2.17-.38,8.48,8.48,0,0,0,1-.5c0,1.43,0,2.45-.08,2.79a.91.91,0,0,1-.13.19,2.62,2.62,0,0,1-1.26.29v0h0v.07l0,.33h0c.68,0,1.41,0,2.19-.05h6.13c.86,0,1.62,0,2.3.05C28.68,23.93,28.64,23.4,28.62,22.89ZM19.51,3c0,.57,0,2.07,0,4a7.82,7.82,0,0,0-2,.5,8.74,8.74,0,0,0-1.77,1h-.17Z"/><text class="cls-2" transform="translate(0 36.72)">Design Studio</text></g></g></svg>