<svg xmlns="http://www.w3.org/2000/svg" viewBox="0 0 95.82 134.39"><defs><style>.cls-1{fill:#292541;}</style></defs><title>Asset 8</title><g id="Layer_2" data-name="Layer 2"><g id="Layer_1-2" data-name="Layer 1"><path class="cls-1" d="M95.22,125.66q-.16-4.23-.17-6.42,0-5.71.33-9.23H92.86A47.71,47.71,0,0,1,90,122.31a14.75,14.75,0,0,1-5.71,7.19q-3.72,2.37-10.1,2.36H66.8a6.07,6.07,0,0,1-2.61-1.39c-1.14-1-1.82-2.81-2-5.44l-.88-32.78c.12-.41.21-.78.33-1.2H59.18c-.12.31-.23.54-.36.83-1.61,3.84-3.09,7-4.41,9.49a31.94,31.94,0,0,1-5.11,7,23,23,0,0,1-3.11,2.66c-.18.14-.33.32-.52.45A23.68,23.68,0,0,1,41,114.1a23.9,23.9,0,0,1-9,2,13.33,13.33,0,0,1-11.14-5.32q-4.12-5.32-4.12-16.31A65.29,65.29,0,0,1,18.56,79a72.44,72.44,0,0,1,5.21-14.66,62.62,62.62,0,0,1,7.74-12.3,42.57,42.57,0,0,1,3.07-3.2c.77-.76,1.54-1.53,2.35-2.19a33.14,33.14,0,0,1,4.19-3.06,23.35,23.35,0,0,1,4.32-2,19.9,19.9,0,0,1,6.39-1.12,16.75,16.75,0,0,1,7.85,1.87,2.56,2.56,0,0,1,.26.2,13.38,13.38,0,0,1,5.39,5.62,16,16,0,0,1,1.7,7c0,.45,0,1,0,1.48,0,.73,0,1.45-.06,2.24a53.42,53.42,0,0,1-.72,6h2.42Q70.49,56.12,72.25,50t3.4-10.38h-2.3q-1.65,4.73-3.08,6c-1,.84-1.94.71-3-.39a27.48,27.48,0,0,0-5.88-4.94,10.42,10.42,0,0,0-1.57-.77L58.8,0a20.24,20.24,0,0,1-2.14.11A20.24,20.24,0,0,1,54.52,0L16,54.18a58.47,58.47,0,0,0-6.46,8c-1,1.51-1.79,3.09-2.63,4.65a60,60,0,0,0-4.4,10c-.12.36-.15.72-.26,1.08A50,50,0,0,0,0,92.25Q0,105.09,7.14,112t21.08,6.92a30.12,30.12,0,0,0,11.91-2.09,54.48,54.48,0,0,0,5.51-2.76c-.07,7.84-.22,13.45-.46,15.32a4,4,0,0,1-.72,1.06,14.76,14.76,0,0,1-6.9,1.59v.14h0v.41l-.13,1.79.13,0v0q5.59-.22,12-.28t12.08-.05h9.06q5.49,0,12.52.05t12.62.28Q95.39,129.89,95.22,125.66ZM45.2,16.41c0,3.12.12,11.37.22,22.08a42.78,42.78,0,0,0-11,2.76,49.71,49.71,0,0,0-9.73,5.42h-.94Z"/></g></g></svg>